<svg version="1.1" xmlns="http://www.w3.org/2000/svg" xmlns:xlink="http://www.w3.org/1999/xlink" width="93.78234" height="110.80764" viewBox="0,0,93.78234,110.80764"><g transform="translate(-193.10883,-124.59617)"><g data-paper-data="{&quot;isPaintingLayer&quot;:true}" fill-rule="nonzero" stroke-linejoin="miter" stroke-miterlimit="10" stroke-dasharray="" stroke-dashoffset="0" style="mix-blend-mode: normal"><path d="M193.35883,222.71617v-91.94427h93.28234v91.94427c0,0 -8.01496,12.89892 -45.3031,12.4249c-42.50491,-0.54034 -47.97924,-12.4249 -47.97924,-12.4249z" fill="#979797" stroke="#778080" stroke-width="0.5" stroke-linecap="butt"/><path d="M193.77118,222.26386c0,0 6.31695,8.26156 33.92193,10.8419c35.2456,0.80392 35.78489,-3.46456 35.78489,-3.46456l0.25977,-94.99529l22.63244,-3.65281v91.27077c0,0 -7.95624,12.80443 -44.97125,12.33389c-42.19356,-0.53638 -47.62778,-12.33389 -47.62778,-12.33389z" fill="#848484" stroke="none" stroke-width="0" stroke-linecap="butt"/><path d="M286.45002,130.48517c0,3.11433 -20.83917,5.63899 -46.54559,5.63899c-25.70642,0 -46.54559,-2.52466 -46.54559,-5.63899c0,-3.11433 20.83917,-5.63899 46.54559,-5.63899c25.70642,0 46.54559,2.52466 46.54559,5.63899z" fill="#979797" stroke="#778080" stroke-width="0.5" stroke-linecap="butt"/><path d="M260.19828,185.6006c4.03481,17.49502 -3.37296,35.5903 -12.9041,36.43971c-13.62112,2.11362 -21.08136,-10.45675 -22.73194,-25.98125c-1.65059,-15.52445 5.20266,-28.95299 15.30725,-29.99356c0,0 16.74665,4.00289 20.32879,19.5351z" fill="#848484" stroke="none" stroke-width="0" stroke-linecap="butt"/><path d="M242.25877,160.04438c0.9334,11.97637 -8.53318,22.31717 -21.14413,23.09696c-12.61097,0.77981 -23.59085,-8.29681 -24.52425,-20.27315c-0.93339,-11.97637 8.53315,-22.31725 21.14413,-23.09696c12.61097,-0.77981 23.59086,8.29681 24.52426,20.27314z" fill="#848484" stroke="none" stroke-width="0" stroke-linecap="butt"/><path d="M284.64993,159.09468c0.4642,5.95613 1.4146,11.31659 -2.3732,15.48881c-3.82857,4.21712 -9.37327,7.02502 -15.71249,7.417c-12.61097,0.77981 -23.59085,-8.29681 -24.52425,-20.27315c-0.93339,-11.97636 8.53315,-22.31725 21.14413,-23.09696c12.61097,-0.77981 21.10588,7.72335 22.03928,19.69967z" data-paper-data="{&quot;index&quot;:null}" fill="#848484" stroke="none" stroke-width="0" stroke-linecap="butt"/><path d="M250.60972,160.41274c-0.12076,-6.39064 3.35344,-12.11561 7.75971,-12.78697c4.40634,-0.67138 8.07624,3.96499 8.19702,10.35566c0.12076,6.39064 -3.35346,12.11557 -7.75972,12.78694c-4.40638,0.6714 -8.07626,-3.96494 -8.19702,-10.35558z" data-paper-data="{&quot;index&quot;:null}" fill-opacity="0.1451" fill="#000000" stroke="none" stroke-width="0" stroke-linecap="butt"/><path d="M285.93268,155.00692c1.36515,11.74158 -7.60655,22.4567 -20.03875,23.93282c-12.43222,1.47612 -23.61719,-6.8457 -24.98231,-18.58728c-1.36516,-11.74158 7.60655,-22.45667 20.03877,-23.93279c12.43224,-1.47612 23.6172,6.84566 24.98229,18.5873z" data-paper-data="{&quot;index&quot;:null}" fill="#f3efef" stroke="#d2c9c9" stroke-width="0.5" stroke-linecap="butt"/><path d="M280.75194,153.68202c1.25459,10.7907 -4.20482,20.63806 -15.63021,21.99463c-11.42541,1.35658 -21.70458,-6.2913 -22.95914,-17.08201c-1.25461,-10.79069 6.99054,-20.63804 18.41595,-21.99461c11.42542,-1.35658 18.91887,6.03802 20.17341,16.82877z" data-paper-data="{&quot;index&quot;:null}" fill="#ffffff" stroke="none" stroke-width="0" stroke-linecap="butt"/><g data-paper-data="{&quot;index&quot;:null}" stroke="none" stroke-width="0" stroke-linecap="butt"><path d="M266.10786,158.13267c0.33806,3.00894 -1.7705,5.74111 -4.70962,6.1025c-2.93906,0.36138 -5.59579,-1.78491 -5.93383,-4.79384c-0.33806,-3.00894 1.7705,-5.74111 4.70961,-6.10248c2.93907,-0.36138 5.59578,1.78491 5.93384,4.79383z" fill="#000000"/><g><path d="M256.30921,159.80199c-0.20474,-1.82262 0.21848,0.58696 1.93495,1.99682c1.66911,1.37099 4.65526,1.71587 2.92409,1.9287c-2.40675,0.29591 -4.58222,-1.46161 -4.85904,-3.92554z" fill="#592800"/><path d="M257.32996,155.48854c-0.0287,-0.25549 0.15034,-0.48751 0.39996,-0.51819c0.24956,-0.0307 0.47518,0.15159 0.50389,0.40709c0.0287,0.25549 -0.15034,0.48754 -0.39995,0.51821c-0.24956,0.0307 -0.47517,-0.15161 -0.50387,-0.40711z" fill="#ffffff"/></g></g><path d="M230.88495,160.75268c-0.12076,6.39064 -3.79064,11.02698 -8.19702,10.35558c-4.40626,-0.67137 -7.88048,-6.3963 -7.75972,-12.78694c0.12078,-6.39067 3.79068,-11.02704 8.19702,-10.35566c4.40627,0.67136 7.88047,6.39633 7.75971,12.78697z" fill-opacity="0.1451" fill="#000000" stroke="none" stroke-width="0" stroke-linecap="butt"/><path d="M240.48308,156.14778c1.36515,11.74158 -7.60655,22.4567 -20.03875,23.93282c-12.43222,1.47612 -23.61719,-6.8457 -24.98231,-18.58729c-1.36516,-11.74158 7.60655,-22.45667 20.03877,-23.93279c12.43224,-1.47612 23.6172,6.84566 24.98229,18.5873z" fill="#f3efef" stroke="#d2c9c9" stroke-width="0.5" stroke-linecap="butt"/><path d="M233.52961,155.07612c1.25459,10.79069 -2.43209,20.38481 -13.85748,21.74139c-11.42541,1.35658 -21.70457,-6.29131 -22.95914,-17.08201c-1.2546,-10.79069 6.99054,-20.63804 18.41595,-21.99461c11.42543,-1.35658 16.89289,6.29127 18.14743,17.08202z" fill="#ffffff" stroke="none" stroke-width="0" stroke-linecap="butt"/><g stroke="none" stroke-width="0" stroke-linecap="butt"><path d="M226.03025,158.47255c0.33806,3.00894 -1.7705,5.74111 -4.70962,6.1025c-2.93906,0.36137 -5.59579,-1.78491 -5.93383,-4.79384c-0.33806,-3.00894 1.7705,-5.74111 4.70961,-6.10248c2.93907,-0.36137 5.59578,1.78491 5.93384,4.79383z" fill="#000000"/><g><path d="M216.2316,160.14187c-0.20474,-1.82261 0.21847,0.58696 1.93495,1.99682c1.66911,1.37099 4.65526,1.71587 2.92409,1.9287c-2.40676,0.29591 -4.58222,-1.46162 -4.85904,-3.92554z" fill="#592800"/><path d="M217.25234,155.82844c-0.0287,-0.2555 0.15034,-0.48751 0.39996,-0.51819c0.24956,-0.0307 0.47518,0.15159 0.50389,0.4071c0.0287,0.2555 -0.15033,0.48754 -0.39995,0.51821c-0.24956,0.0307 -0.47517,-0.15161 -0.50388,-0.40711z" fill="#ffffff"/></g></g><path d="M258.82604,193.19633c0.06463,14.76166 -7.74055,26.60156 -17.43329,26.44497c-9.69277,-0.15653 -17.60274,-12.25014 -17.66732,-27.01186c-0.06461,-14.76165 7.74056,-26.60151 17.43328,-26.44495c9.69277,0.15653 17.60274,12.25014 17.66738,27.01187z" fill="#ffd366" stroke="#bf9f4d" stroke-width="0.5" stroke-linecap="butt"/><path d="M241.55549,180.66961c-2.15963,5.46061 -6.96303,8.81359 -10.72851,7.48914c-3.76549,-1.32448 -5.06725,-6.82474 -2.90758,-12.2854c2.15963,-5.46061 6.96303,-8.8136 10.72855,-7.48919c3.7655,1.32448 5.06722,6.8248 2.90759,12.28542z" fill="#ffdf90" stroke="none" stroke-width="0" stroke-linecap="butt"/><path d="M281.74444,135.9095l-81.83425,-0.40049" fill="none" stroke="#000000" stroke-width="1" stroke-linecap="round"/></g></g></svg>